<?xml version="1.0" encoding="utf-8"?>
<!-- Generator: Adobe Illustrator 16.0.0, SVG Export Plug-In . SVG Version: 6.00 Build 0)  -->
<!DOCTYPE svg PUBLIC "-//W3C//DTD SVG 1.1//EN" "http://www.w3.org/Graphics/SVG/1.1/DTD/svg11.dtd">
<svg version="1.1" id="Layer_1" xmlns="http://www.w3.org/2000/svg" xmlns:xlink="http://www.w3.org/1999/xlink" x="0px" y="0px"
	 width="104px" height="109px" viewBox="0 0 104 109" enable-background="new 0 0 104 109" xml:space="preserve">
<g>
	<circle fill="none" stroke="#ffffff" stroke-width="4" stroke-miterlimit="10" cx="52.698" cy="54.684" r="14.822"/>
	<g>
		<path fill="none" stroke="#ffffff" stroke-width="4" stroke-miterlimit="10" d="M89.379,44.301
			c-1.082-1.084-1.826-2.377-2.233-3.746c-3.341,1.727-7.548,1.189-10.349-1.611c-1.518-1.516-2.371-3.445-2.559-5.428
			c-1.981-0.189-3.911-1.041-5.429-2.559c-2.812-2.812-3.342-7.041-1.591-10.389c-1.4-0.4-2.723-1.15-3.826-2.254
			c-2.399-2.4-3.135-5.83-2.212-8.865c-2.751-0.512-5.583-0.793-8.482-0.793c-25.42,0-46.026,20.607-46.026,46.027
			c0,25.419,20.606,46.027,46.026,46.027s46.027-20.607,46.027-46.027c0-2.768-0.258-5.473-0.726-8.105
			C95.026,47.391,91.715,46.635,89.379,44.301z"/>
	</g>
	<line fill="none" stroke="#ffffff" stroke-width="4" stroke-miterlimit="10" x1="80.184" y1="60.926" x2="80.184" y2="69.506"/>
	<line fill="none" stroke="#ffffff" stroke-width="4" stroke-miterlimit="10" x1="30.36" y1="60.926" x2="30.36" y2="69.506"/>
	<line fill="none" stroke="#ffffff" stroke-width="4" stroke-miterlimit="10" x1="75.503" y1="76.807" x2="75.503" y2="85.389"/>
	<line fill="none" stroke="#ffffff" stroke-width="4" stroke-miterlimit="10" x1="24.293" y1="31.28" x2="24.293" y2="39.862"/>
	<line fill="none" stroke="#ffffff" stroke-width="4" stroke-miterlimit="10" x1="66.445" y1="73.494" x2="60.377" y2="79.561"/>
	<line fill="none" stroke="#ffffff" stroke-width="4" stroke-miterlimit="10" x1="37.876" y1="32.538" x2="31.809" y2="38.604"/>
	<line fill="none" stroke="#ffffff" stroke-width="4" stroke-miterlimit="10" x1="21.198" y1="48.618" x2="15.13" y2="54.684"/>
	<line fill="none" stroke="#ffffff" stroke-width="4" stroke-miterlimit="10" x1="51.038" y1="89.508" x2="44.971" y2="83.439"/>
	<line fill="none" stroke="#ffffff" stroke-width="4" stroke-miterlimit="10" x1="30.36" y1="81.121" x2="24.293" y2="75.053"/>
	<line fill="none" stroke="#ffffff" stroke-width="4" stroke-miterlimit="10" x1="51.038" y1="26.999" x2="44.971" y2="20.932"/>
</g>
</svg>
